<svg xmlns="http://www.w3.org/2000/svg" xmlns:xlink="http://www.w3.org/1999/xlink" stroke-dasharray="none" shape-rendering="auto" font-family="'Dialog'" text-rendering="auto" fill-opacity="1" contentscripttype="text/ecmascript" color-interpolation="auto" color-rendering="auto" preserveAspectRatio="xMidYMid meet" font-size="12px" viewBox="0 0 600 400" fill="black" image-rendering="auto" stroke="black" stroke-miterlimit="10" zoomAndPan="magnify" version="1.0" stroke-linejoin="miter" stroke-linecap="square" contentstyletype="text/css" font-style="normal" stroke-width="1" stroke-dashoffset="0" font-weight="normal" stroke-opacity="1"><defs id="genericDefs"></defs> <g> <defs id="defs1"> <clipPath clipPathUnits="userSpaceOnUse" id="clipPath1"> <path d="M0 0 L600 0 L600 400 L0 400 L0 0 Z"></path> </clipPath> <clipPath clipPathUnits="userSpaceOnUse" id="clipPath2"> <path d="M0 0 L0 400 L600 400 L600 0 Z"></path> </clipPath> <clipPath clipPathUnits="userSpaceOnUse" id="clipPath3"> <path d="M-479.5735 -28.6136 L-479.5735 371.3864 L120.4265 371.3864 L120.4265 -28.6136 Z"></path> </clipPath> <clipPath clipPathUnits="userSpaceOnUse" id="clipPath4"> <path d="M-322.4531 -28.6136 L-322.4531 371.3864 L277.5469 371.3864 L277.5469 -28.6136 Z"></path> </clipPath> <clipPath clipPathUnits="userSpaceOnUse" id="clipPath5"> <path d="M-243.8875 -164.6878 L-243.8875 235.3122 L356.1125 235.3122 L356.1125 -164.6878 Z"></path> </clipPath> <clipPath clipPathUnits="userSpaceOnUse" id="clipPath6"> <path d="M-165.3328 -300.762 L-165.3328 99.238 L434.6672 99.238 L434.6672 -300.762 Z"></path> </clipPath> </defs> <g fill="white" stroke="white"> <rect x="0" width="600" y="0" height="400" clip-path="url(#clipPath1)" stroke="none"></rect> </g> <g text-rendering="geometricPrecision"> <path d="M493.9585 229.0458 C493.9585 228.0046 493.1147 227.1608 492.0735 227.1608 C491.0322 227.1608 490.1885 228.0046 490.1885 229.0458 L490.1885 319.762 C490.1885 320.8033 491.0322 321.647 492.0735 321.647 C493.1147 321.647 493.9585 320.8033 493.9585 319.762 ZM477.6296 240.3579 C477.6296 239.3166 476.7859 238.4729 475.7446 238.4729 C474.7033 238.4729 473.8596 239.3166 473.8596 240.3579 L473.8596 308.45 C473.8596 309.4912 474.7033 310.335 475.7446 310.335 C476.7859 310.335 477.6296 309.4912 477.6296 308.45 Z" clip-path="url(#clipPath2)" stroke="none"></path> </g> <g text-rendering="geometricPrecision"> <path d="M491.1309 318.1295 L412.5762 363.4876 C411.6745 364.0083 411.3657 365.1609 411.8864 366.0626 C412.407 366.9644 413.5596 367.2731 414.4614 366.7525 L493.0161 321.3944 C493.9178 320.8737 494.2266 319.7212 493.7059 318.8194 C493.1852 317.9177 492.0327 317.6089 491.1309 318.1295 Z" clip-path="url(#clipPath2)" stroke="none"></path> </g> <g text-rendering="geometricPrecision"> <path d="M412.5763 366.7525 C413.4781 367.2732 414.6307 366.9643 415.1513 366.0625 C415.6719 365.1607 415.3631 364.0082 414.4613 363.4875 L335.8956 318.1295 C334.9938 317.6089 333.8413 317.9177 333.3206 318.8195 C332.8 319.7213 333.1089 320.8738 334.0107 321.3945 ZM410.9433 346.9549 C411.8451 347.4755 412.9976 347.1667 413.5182 346.2649 C414.0388 345.3631 413.73 344.2106 412.8282 343.6899 L353.857 309.6443 C352.9552 309.1237 351.8027 309.4325 351.282 310.3343 C350.7614 311.2361 351.0703 312.3886 351.972 312.9092 Z" clip-path="url(#clipPath2)" stroke="none"></path> </g> <g text-rendering="geometricPrecision"> <path d="M336.8381 319.762 L336.8381 229.0459 C336.8381 228.0046 335.9944 227.1608 334.9531 227.1608 C333.9119 227.1608 333.0681 228.0046 333.0681 229.0459 L333.0681 319.762 C333.0681 320.8033 333.9119 321.647 334.9531 321.647 C335.9944 321.647 336.8381 320.8033 336.8381 319.762 Z" clip-path="url(#clipPath2)" stroke="none"></path> </g> <g text-rendering="geometricPrecision"> <path d="M334.0107 227.4134 C333.1089 227.934 332.8 229.0865 333.3206 229.9883 C333.8413 230.8901 334.9938 231.1989 335.8956 230.6783 L414.4613 185.3203 C415.3631 184.7996 415.6719 183.6471 415.1513 182.7453 C414.6307 181.8435 413.4781 181.5347 412.5763 182.0553 ZM351.972 235.8986 C351.0703 236.4192 350.7614 237.5718 351.282 238.4735 C351.8027 239.3753 352.9552 239.6842 353.857 239.1635 L412.8282 205.1179 C413.73 204.5972 414.0388 203.4447 413.5182 202.5429 C412.9976 201.6411 411.8451 201.3323 410.9433 201.8529 Z" clip-path="url(#clipPath2)" stroke="none"></path> </g> <g text-rendering="geometricPrecision"> <path d="M493.0161 227.4134 L414.4614 182.0553 C413.5596 181.5347 412.407 181.8435 411.8864 182.7452 C411.3657 183.6469 411.6745 184.7995 412.5762 185.3202 L491.1309 230.6783 C492.0327 231.1989 493.1852 230.8902 493.7059 229.9884 C494.2266 229.0867 493.9178 227.9341 493.0161 227.4134 Z" clip-path="url(#clipPath2)" stroke="none"></path> </g> <g text-rendering="geometricPrecision"> <path d="M415.4038 183.6878 L415.4038 92.9716 C415.4038 91.9304 414.5601 91.0866 413.5188 91.0866 C412.4775 91.0866 411.6338 91.9304 411.6338 92.9716 L411.6338 183.6878 C411.6338 184.729 412.4775 185.5728 413.5188 185.5728 C414.5601 185.5728 415.4038 184.729 415.4038 183.6878 Z" clip-path="url(#clipPath2)" stroke="none"></path> </g> <g text-rendering="geometricPrecision"> <path d="M414.4614 94.6041 L474.9128 59.699 C475.8145 59.1783 476.1233 58.0257 475.6026 57.124 C475.0819 56.2222 473.9294 55.9134 473.0276 56.4341 L412.5762 91.3392 C411.6745 91.8599 411.3657 93.0125 411.8864 93.9142 C412.407 94.816 413.5596 95.1247 414.4614 94.6041 Z" clip-path="url(#clipPath2)" stroke="none"></path> </g> <g text-rendering="geometricPrecision"> <path d="M412.5763 104.0315 C413.4781 104.5521 414.6307 104.2433 415.1513 103.3415 C415.6719 102.4397 415.3631 101.2872 414.4613 100.7666 L350.4182 63.7928 C349.5164 63.2722 348.3639 63.581 347.8433 64.4828 C347.3226 65.3846 347.6315 66.5371 348.5333 67.0577 ZM420.7404 89.8901 C421.6422 90.4107 422.7948 90.1019 423.3154 89.2001 C423.836 88.2983 423.5272 87.1457 422.6254 86.6251 L358.5824 49.6514 C357.6806 49.1308 356.5281 49.4396 356.0074 50.3414 C355.4868 51.2432 355.7957 52.3957 356.6975 52.9164 Z" clip-path="url(#clipPath2)" stroke="none"></path> </g> <g text-rendering="geometricPrecision"> <path d="M335.8956 227.4134 L275.4337 192.5071 C274.5319 191.9865 273.3793 192.2953 272.8587 193.1971 C272.3381 194.0988 272.6469 195.2514 273.5487 195.772 L334.0107 230.6783 C334.9124 231.1989 336.065 230.8901 336.5856 229.9883 C337.1062 229.0865 336.7974 227.934 335.8956 227.4134 Z" clip-path="url(#clipPath2)" stroke="none"></path> </g> <g text-rendering="geometricPrecision"> <path d="M237.3416 192.5083 L176.8902 227.4134 C175.9885 227.9341 175.6797 229.0867 176.2004 229.9884 C176.721 230.8902 177.8736 231.1989 178.7754 230.6783 L239.2267 195.7732 C240.1285 195.2525 240.4373 194.0999 239.9166 193.1982 C239.3959 192.2964 238.2433 191.9877 237.3416 192.5083 Z" clip-path="url(#clipPath2)" stroke="none"></path> </g> <g text-rendering="geometricPrecision"> <path d="M178.7753 227.4134 L100.2096 182.0553 C99.3078 181.5347 98.1553 181.8435 97.6346 182.7453 C97.114 183.6471 97.4229 184.7996 98.3246 185.3203 L176.8903 230.6783 C177.7921 231.1989 178.9447 230.8901 179.4653 229.9883 C179.9859 229.0865 179.677 227.934 178.7753 227.4134 Z" clip-path="url(#clipPath2)" stroke="none"></path> </g> <g text-rendering="geometricPrecision"> <path d="M187.8822 224.3316 C187.8822 223.2904 187.0385 222.4466 185.9972 222.4466 C184.956 222.4466 184.1122 223.2904 184.1122 224.3316 L184.1122 297.3352 C184.1122 298.3765 184.956 299.2202 185.9972 299.2202 C187.0385 299.2202 187.8822 298.3765 187.8822 297.3352 ZM171.5533 224.3323 C171.5533 223.291 170.7096 222.4473 169.6683 222.4473 C168.6271 222.4473 167.7833 223.291 167.7833 224.3323 L167.7833 297.3352 C167.7833 298.3765 168.6271 299.2202 169.6683 299.2202 C170.7096 299.2202 171.5533 298.3765 171.5533 297.3352 Z" clip-path="url(#clipPath2)" stroke="none"></path> </g> <g fill="white" text-rendering="geometricPrecision" stroke="white"> <path d="M488.8489 32.7269 C484.6582 32.7269 481.261 36.1241 481.261 40.3147 L481.261 55.4905 C481.261 59.6812 484.6582 63.0784 488.8489 63.0784 L495.2981 63.0784 C499.4888 63.0784 502.886 59.6812 502.886 55.4905 L502.886 40.3147 C502.886 36.1241 499.4888 32.7269 495.2981 32.7269 Z" clip-path="url(#clipPath2)" stroke="none"></path> </g> <g text-rendering="geometricPrecision" font-size="32px" font-family="sans-serif" transform="translate(479.5735,28.6136)"> <text x="0" xml:space="preserve" y="31" clip-path="url(#clipPath3)" stroke="none">O</text> </g> <g fill="white" text-rendering="geometricPrecision" font-size="32px" font-family="sans-serif" stroke="white"> <path d="M331.7285 32.7269 C327.5378 32.7269 324.1406 36.1241 324.1406 40.3147 L324.1406 55.4905 C324.1406 59.6812 327.5378 63.0784 331.7285 63.0784 L338.1777 63.0784 C342.3684 63.0784 345.7656 59.6812 345.7656 55.4905 L345.7656 40.3147 C345.7656 36.1241 342.3684 32.7269 338.1777 32.7269 Z" clip-path="url(#clipPath2)" stroke="none"></path> <text x="0" y="31" clip-path="url(#clipPath4)" transform="translate(322.4531,28.6136)" fill="black" stroke="none" xml:space="preserve">O</text> </g> <g fill="white" text-rendering="geometricPrecision" font-size="32px" font-family="sans-serif" stroke="white"> <path d="M253.1629 168.8011 C248.9722 168.8011 245.575 172.1983 245.575 176.3889 L245.575 191.5647 C245.575 195.7554 248.9722 199.1526 253.1629 199.1526 L259.6121 199.1526 C263.8028 199.1526 267.2 195.7554 267.2 191.5647 L267.2 176.3889 C267.2 172.1983 263.8028 168.8011 259.6121 168.8011 Z" clip-path="url(#clipPath2)" stroke="none"></path> <text x="0" y="31" clip-path="url(#clipPath5)" transform="translate(243.8875,164.6878)" fill="black" stroke="none" xml:space="preserve">O</text> </g> <g fill="white" text-rendering="geometricPrecision" font-size="32px" font-family="sans-serif" stroke="white"> <path d="M174.6082 304.8753 C170.4175 304.8753 167.0203 308.2725 167.0203 312.4632 L167.0203 327.6389 C167.0203 331.8296 170.4175 335.2268 174.6082 335.2268 L181.0574 335.2268 C185.2481 335.2268 188.6453 331.8296 188.6453 327.6389 L188.6453 312.4632 C188.6453 308.2725 185.2481 304.8753 181.0574 304.8753 Z" clip-path="url(#clipPath2)" stroke="none"></path> <text x="0" y="31" clip-path="url(#clipPath6)" transform="translate(165.3328,300.762)" fill="black" stroke="none" xml:space="preserve">O</text> </g> </g> <g fill="none" class="bondBoxes"> <polygon class="bondBox" id="bondBox-0" points="500.073486328125,229.04583740234375,484.073486328125,229.04583740234375,484.073486328125,319.7619934082031,500.073486328125,319.7619934082031"></polygon> <polygon class="bondBox" id="bondBox-1" points="496.0737835000796,326.69002505767264,488.0731891561704,312.8339617587336,409.5185016561704,358.19202450287423,417.5190960000796,372.04808780181327"></polygon> <polygon class="bondBox" id="bondBox-2" points="409.51892119726807,372.0483300310361,417.51867645898193,358.1917822736514,338.95300263085693,312.8337195295108,330.95324736914307,326.69026728689545"></polygon> <polygon class="bondBox" id="bondBox-3" points="326.953125,319.7619934082031,342.953125,319.7619934082031,342.953125,229.04583740234375,326.953125,229.04583740234375"></polygon> <polygon class="bondBox" id="bondBox-4" points="330.95324736914307,222.11756352365143,338.95300263085693,235.97411128103607,417.51867645898193,190.61604853689545,409.51892119726807,176.7595007795108"></polygon> <polygon class="bondBox" id="bondBox-5" points="488.0731891561704,235.9738690518133,496.0737835000796,222.1178057528742,417.5190960000796,176.75974300873358,409.5185016561704,190.61580630767267"></polygon> <polygon class="bondBox" id="bondBox-6" points="405.518798828125,183.68777465820312,421.518798828125,183.68777465820312,421.518798828125,92.97164154052734,405.518798828125,92.97164154052734"></polygon> <polygon class="bondBox" id="bondBox-7" points="409.51850115154673,86.04361018243127,417.51909650470327,99.89967289862342,496.07378400470327,54.54160252508827,488.07318865154673,40.6855398088961"></polygon> <polygon class="bondBox" id="bondBox-8" points="409.5189206926621,99.89991512789715,417.5186769635879,86.04336795315754,338.9530031354629,40.68529757962238,330.9532468645371,54.541844754361996"></polygon> <polygon class="bondBox" id="bondBox-9" points="330.95324736914307,235.97411128103607,338.95300263085693,222.11756352365143,260.38732880273193,176.7595007795108,252.3875735410181,190.61604853689545"></polygon> <polygon class="bondBox" id="bondBox-10" points="260.3877495093237,190.61580563470756,252.38715283442627,176.7597436816987,173.8324958520044,222.11780642583932,181.83309252690185,235.97386837884818"></polygon> <polygon class="bondBox" id="bondBox-11" points="173.83291655859622,235.97411128103607,181.83267182031003,222.11756352365143,103.26699799218504,176.7595007795108,95.26724273047121,190.61604853689545"></polygon> <polygon class="bondBox" id="bondBox-12" points="185.83279418945312,229.04583740234375,169.83279418945312,229.04583740234375,169.83279418945312,319.7619934082031,185.83279418945312,319.7619934082031"></polygon> </g> </svg>