<svg xmlns:xlink="http://www.w3.org/1999/xlink" color-rendering="auto" color-interpolation="auto" text-rendering="auto"
    stroke="black" stroke-linecap="square" width="236" stroke-miterlimit="10" shape-rendering="auto" stroke-opacity="1" fill="black"
    stroke-dasharray="none" font-weight="normal" stroke-width="1" height="436" xmlns="http://www.w3.org/2000/svg" font-family="'Dialog'"
    font-style="normal" stroke-linejoin="miter" font-size="12px" stroke-dashoffset="0" image-rendering="auto">
    <!--Generated by the Batik Graphics2D SVG Generator-->
    <defs id="genericDefs" />
    <g>
        <defs id="defs1">
            <clipPath clipPathUnits="userSpaceOnUse" id="clipPath1">
                <path d="M0 0 L236 0 L236 436 L0 436 L0 0 Z" />
            </clipPath>
            <clipPath clipPathUnits="userSpaceOnUse" id="clipPath2">
                <path d="M-155.6034 -262.2917 L80.3966 -262.2917 L80.3966 173.7083 L-155.6034 173.7083 L-155.6034 -262.2917 Z"
                />
            </clipPath>
            <clipPath clipPathUnits="userSpaceOnUse" id="clipPath3">
                <path d="M-75.3456 -88.1328 L160.6544 -88.1328 L160.6544 347.8672 L-75.3456 347.8672 L-75.3456 -88.1328 Z" />
            </clipPath>
            <clipPath clipPathUnits="userSpaceOnUse" id="clipPath4">
                <path d="M-79.5417 -328.1267 L156.4583 -328.1267 L156.4583 107.8732 L-79.5417 107.8732 L-79.5417 -328.1267 Z"
                />
            </clipPath>
        </defs>
        <g text-rendering="geometricPrecision">
            <path d="M155.2697 282.6836 L127.4376 337.6934 C127.1982 338.1665 127.3876 338.744 127.8608 338.9833 C128.334 339.2227 128.9114 339.0333 129.1508 338.5602 L156.9829 283.5504 C157.2223 283.0772 157.0329 282.4998 156.5597 282.2604 C156.0865 282.021 155.5091 282.2104 155.2697 282.6836 Z"
                stroke="none" clip-path="url(#clipPath1)" />
        </g>
        <g text-rendering="geometricPrecision">
            <path d="M128.8589 97.8306 L152.2052 57.9635 C152.4732 57.5059 152.3195 56.9179 151.8619 56.6499 C151.4043 56.382 150.8163 56.5356 150.5484 56.9932 L127.202 96.8604 C126.9341 97.318 127.0877 97.9059 127.5453 98.1739 C128.0029 98.4419 128.5909 98.2882 128.8589 97.8306 Z"
                stroke="none" clip-path="url(#clipPath1)" />
        </g>
        <g text-rendering="geometricPrecision">
            <path d="M128.8421 102.4505 C129.3723 102.4416 129.7947 102.0047 129.7858 101.4745 C129.7769 100.9443 129.34 100.5219 128.8097 100.5308 L91.0429 101.1677 C90.5126 101.1766 90.0902 101.6135 90.0992 102.1437 C90.1081 102.674 90.545 103.0963 91.0752 103.0874 ZM130.5062 94.1053 C131.0364 94.0963 131.4588 93.6595 131.4499 93.1292 C131.4409 92.599 131.0041 92.1766 130.4738 92.1856 L90.9026 92.8529 C90.3724 92.8618 89.95 93.2987 89.959 93.8289 C89.9679 94.3591 90.4048 94.7815 90.935 94.7726 Z"
                stroke="none" clip-path="url(#clipPath1)" />
        </g>
        <g text-rendering="geometricPrecision">
            <path d="M127.456 338.5948 L150.0151 378.9894 C150.2737 379.4524 150.8583 379.618 151.3213 379.3595 C151.7843 379.1009 151.95 378.5162 151.6914 378.0533 L129.1323 337.6587 C128.8737 337.1957 128.2891 337.03 127.8261 337.2886 C127.3631 337.5471 127.1974 338.1318 127.456 338.5948 Z"
                stroke="none" clip-path="url(#clipPath1)" />
        </g>
        <g text-rendering="geometricPrecision">
            <path d="M130.6163 343.2448 C131.1466 343.2448 131.5763 342.8151 131.5763 342.2848 C131.5763 341.7545 131.1466 341.3247 130.6163 341.3247 L95.1317 341.3247 C94.6014 341.3247 94.1717 341.7545 94.1717 342.2848 C94.1717 342.8151 94.6014 343.2448 95.1317 343.2448 ZM130.3979 334.9287 C130.9282 334.9287 131.3579 334.4991 131.3579 333.9688 C131.3579 333.4384 130.9282 333.0088 130.3979 333.0088 L95.1317 333.0088 C94.6014 333.0088 94.1717 333.4384 94.1717 333.9688 C94.1717 334.4991 94.6014 334.9287 95.1317 334.9287 Z"
                stroke="none" clip-path="url(#clipPath1)" />
        </g>
        <g text-rendering="geometricPrecision">
            <path d="M160.3045 260.4294 L128.9733 97.1646 C128.8733 96.6438 128.3703 96.3027 127.8495 96.4027 C127.3287 96.5026 126.9877 97.0056 127.0877 97.5264 L158.4189 260.7913 C158.5188 261.312 159.0218 261.6531 159.5426 261.5531 C160.0634 261.4532 160.4044 260.9502 160.3045 260.4294 Z"
                stroke="none" clip-path="url(#clipPath1)" />
        </g>
        <g fill="white" text-rendering="geometricPrecision" stroke="white">
            <path d="M159.8866 264.3815 C157.6591 264.3815 155.8534 266.1872 155.8534 268.4147 L155.8534 276.4811 C155.8534 278.7086 157.6591 280.5143 159.8866 280.5143 L163.3202 280.5143 C165.5477 280.5143 167.3534 278.7086 167.3534 276.4811 L167.3534 268.4147 C167.3534 266.1872 165.5477 264.3815 163.3202 264.3815 Z"
                stroke="none" clip-path="url(#clipPath1)" />
        </g>
        <g text-rendering="geometricPrecision" font-size="16px" font-family="sans-serif" transform="translate(155.6034,262.2917)">
            <text x="0" xml:space="preserve" y="16" clip-path="url(#clipPath2)" stroke="none">O</text>
        </g>
        <g fill="white" text-rendering="geometricPrecision" font-size="16px" font-family="sans-serif" stroke="white">
            <path d="M79.6288 90.2226 C77.4013 90.2226 75.5956 92.0283 75.5956 94.2558 L75.5956 102.3222 C75.5956 104.5497 77.4013 106.3554 79.6288 106.3554 L83.0624 106.3554 C85.2898 106.3554 87.0956 104.5497 87.0956 102.3222 L87.0956 94.2558 C87.0956 92.0283 85.2898 90.2226 83.0624 90.2226 Z"
                stroke="none" clip-path="url(#clipPath1)" />
            <text x="0" y="16" transform="translate(75.3456,88.1327)" clip-path="url(#clipPath3)" fill="black" stroke="none"
                xml:space="preserve">O</text>
        </g>
        <g fill="white" text-rendering="geometricPrecision" font-size="16px" font-family="sans-serif" stroke="white">
            <path d="M83.8249 330.2166 C81.5974 330.2166 79.7917 332.0223 79.7917 334.2498 L79.7917 342.3162 C79.7917 344.5437 81.5974 346.3494 83.8249 346.3494 L87.2585 346.3494 C89.486 346.3494 91.2917 344.5437 91.2917 342.3162 L91.2917 334.2498 C91.2917 332.0223 89.486 330.2166 87.2585 330.2166 Z"
                stroke="none" clip-path="url(#clipPath1)" />
            <text x="0" y="16" transform="translate(79.5417,328.1268)" clip-path="url(#clipPath4)" fill="black" stroke="none"
                xml:space="preserve">O</text>
        </g>
    </g>
</svg>